<?xml version="1.0" encoding="utf-8"?>
<!-- Generator: Adobe Illustrator 21.1.0, SVG Export Plug-In . SVG Version: 6.00 Build 0)  -->
<svg version="1.1" id="Car" xmlns="http://www.w3.org/2000/svg" xmlns:xlink="http://www.w3.org/1999/xlink" x="0px" y="0px"
	 viewBox="0 0 550 1100" style="enable-background:new 0 0 550 1100;" xml:space="preserve">
<style type="text/css">
	.st0{fill:#D32F2F;}
	.st1{fill:#B71C1C;}
	.st2{fill:#212121;}
	.st3{fill:#F44336;}
</style>
<polyline class="st0" points="1,166.5 55.8,330.8 494.1,330.8 548.9,166.5 "/>
<path class="st0" d="M442.6,218"/>
<polyline class="st0" points="548.9,933.5 494.1,769.2 55.8,769.2 1,933.5 "/>
<polyline class="st1" points="1,166.5 1,933.5 55.8,769.2 55.8,330.8 "/>
<polyline class="st1" points="548.9,933.5 548.9,166.5 494.1,330.8 494.1,769.2 "/>
<polyline class="st2" points="28.4,174.7 77.7,322.6 472.2,322.6 521.5,174.7 "/>
<polyline class="st2" points="521.5,925.3 472.2,777.4 77.7,777.4 28.4,925.3 "/>
<line class="st2" x1="46" y1="550" x2="46" y2="451.4"/>
<polyline class="st2" points="13.1,561 13.1,831.6 46,733 46,561 "/>
<line class="st2" x1="13.1" y1="352.8" x2="13.1" y2="550"/>
<polyline class="st2" points="13.1,539 12,265.2 44.9,363.8 46,539 "/>
<polyline class="st2" points="536.3,537.5 536.3,266.8 503.4,365.4 503.4,537.5 "/>
<polyline class="st2" points="536.3,559.4 537.4,833.2 504.5,734.6 503.4,559.4 "/>
<rect x="55.8" y="330.8" class="st3" width="438.3" height="438.3"/>
<polyline class="st3" points="548.9,166.5 521.2,0 21.7,0 1,166.5 "/>
<polyline class="st3" points="1.6,933.5 29.3,1100 528.8,1100 549.5,933.5 "/>
</svg>
